<?xml version="1.0" encoding="UTF-8" standalone="no"?>
<!-- Created with Inkscape (http://www.inkscape.org/) -->

<svg
   width="297mm"
   height="210mm"
   viewBox="0 0 297 210"
   version="1.1"
   id="svg832"
   inkscape:export-filename="C:\Users\MyPc\Desktop\Bootstrap\images\South.jpg"
   inkscape:export-xdpi="96"
   inkscape:export-ydpi="96"
   inkscape:version="1.1.2 (b8e25be833, 2022-02-05)"
   sodipodi:docname="South.svg"
   xmlns:inkscape="http://www.inkscape.org/namespaces/inkscape"
   xmlns:sodipodi="http://sodipodi.sourceforge.net/DTD/sodipodi-0.dtd"
   xmlns="http://www.w3.org/2000/svg"
   xmlns:svg="http://www.w3.org/2000/svg">
  <sodipodi:namedview
     id="namedview834"
     pagecolor="#ffffff"
     bordercolor="#666666"
     borderopacity="1.0"
     inkscape:pageshadow="2"
     inkscape:pageopacity="0.0"
     inkscape:pagecheckerboard="0"
     inkscape:document-units="mm"
     showgrid="false"
     units="mm"
     inkscape:zoom="0.38796647"
     inkscape:cx="470.40148"
     inkscape:cy="469.1127"
     inkscape:window-width="1920"
     inkscape:window-height="1057"
     inkscape:window-x="-8"
     inkscape:window-y="-8"
     inkscape:window-maximized="1"
     inkscape:current-layer="layer1" />
  <defs
     id="defs829" />
  <g
     inkscape:label="Layer 1"
     inkscape:groupmode="layer"
     id="layer1">
    <path
       id="path18580"
       style="fill:#008000;stroke-width:0.276182"
       d="m 151.60183,104.2893 c 1.46889,-0.6534 1.75673,-1.12533 0.68636,-1.12533 -1.08178,0 -3.46658,0.89361 -3.46658,1.29897 0,0.91436 0.38888,0.89007 2.78022,-0.17364 z m -6.08498,-0.1668 c 0.21789,-0.28388 0.62653,-1.12029 0.90808,-1.85869 0.2974,-0.7799 0.96108,-1.74821 1.58362,-2.310495 0.58942,-0.53237 1.07168,-1.08952 1.07168,-1.2381 0,-0.36012 -0.78288,-0.34212 -1.70712,0.0392 -1.07021,0.44161 -3.17397,3.878135 -3.19591,5.220575 -0.0133,0.81597 0.76112,0.90121 1.33965,0.14747 z m 6.06619,-2.70012 c 0.53441,-0.84785 0.89443,-1.13967 1.36442,-1.106 0.42687,0.0306 0.67031,-0.12999 0.7346,-0.484555 0.16825,-0.92806 -0.34865,-1.23929 -2.05826,-1.23929 -1.55906,0 -1.63524,0.0331 -1.57374,0.68304 0.0356,0.37568 -0.0636,0.956335 -0.22038,1.290325 -0.21291,0.45368 -0.20185,0.78446 0.0437,1.30775 0.46204,0.98452 0.87298,0.87606 1.70963,-0.45127 z m 4.70295,0.67521 c 0.85026,-0.67916 0.38193,-0.9639 -1.18898,-0.72287 -1.46813,0.22526 -1.76432,0.39981 -1.50146,0.88483 0.26032,0.48035 2.01882,0.37449 2.69044,-0.16196 z m -7.13738,-4.432362 c 1.29327,-0.24376 1.53521,-1.1672 0.60554,-2.31115 -0.77387,-0.95224 -1.41974,-0.91993 -3.97075,0.19859 -1.92733,0.84508 -2.3769,1.25905 -1.92588,1.7734 0.2434,0.27756 0.5768,0.27482 1.51867,-0.0125 1.0355,-0.31582 1.26343,-0.3035 1.60566,0.0868 0.43934,0.50103 0.72711,0.5362 2.16676,0.26485 z m 9.69142,-7.24136 c 0.43996,-0.41639 0.89557,-2.45352 0.79601,-3.559058 -0.0755,-0.837435 0.005,-0.936999 1.08233,-1.33903 0.6401,-0.238888 1.62934,-0.788328 2.19831,-1.220996 0.97761,-0.743417 1.0345,-0.867974 1.0345,-2.265222 0,-1.210363 0.14073,-1.67107 0.77587,-2.539886 0.42674,-0.583729 1.17559,-1.681196 1.66411,-2.438812 0.79123,-1.22705 0.97129,-1.358527 1.64873,-1.204025 0.41829,0.09544 1.26019,0.173454 1.8709,0.173454 0.93791,0 1.27265,0.177798 2.15511,1.144692 0.99308,1.088109 1.02967,1.190198 0.74007,2.065166 -0.26861,0.811539 -0.23951,0.994772 0.24597,1.548395 0.41357,0.471625 0.72444,0.578183 1.2489,0.428076 0.86864,-0.248618 3.5334,-3.079261 3.43206,-3.645721 -0.0787,-0.439836 -2.81288,-1.835537 -3.59584,-1.835537 -0.25256,0 -0.61104,-0.353047 -0.79659,-0.78454 -0.18558,-0.431492 -0.62835,-1.025211 -0.98397,-1.319384 -0.54659,-0.452153 -0.82286,-0.488597 -1.78689,-0.235683 -0.81078,0.212708 -1.22185,0.204711 -1.42245,-0.02773 -0.50878,-0.589424 0.57228,-1.154572 2.11974,-1.108138 1.11697,0.03355 1.51461,-0.07972 1.84875,-0.526675 0.23414,-0.313137 0.88649,-0.834786 1.44969,-1.159213 0.66123,-0.3809 1.05326,-0.824945 1.10662,-1.253454 0.0724,-0.581847 -0.0311,-0.663598 -0.84054,-0.663598 -0.79192,0 -0.92317,-0.0968 -0.92317,-0.680953 0,-0.374537 -0.16748,-0.938596 -0.37219,-1.253467 -0.32523,-0.500282 -0.44308,-0.523072 -0.93415,-0.180695 -0.3815,0.265962 -0.95759,0.329738 -1.79391,0.198571 -1.20102,-0.188371 -1.23891,-0.170446 -1.50934,0.71419 -0.15257,0.499082 -0.3857,0.907426 -0.51809,0.907426 -0.13238,0 -0.38324,0.392425 -0.55745,0.872047 -0.23101,0.636042 -0.64197,1.00897 -1.51847,1.377973 -0.66094,0.278267 -1.34661,0.631487 -1.52371,0.784961 -0.2131,0.184682 -0.54105,0.115372 -0.96984,-0.205044 -1.04411,-0.780171 -0.7452,0.0099 0.51595,1.362698 0.6401,0.68692 1.16381,1.408401 1.16381,1.603308 0,0.463653 -0.75602,0.645797 -1.47715,0.355857 -0.36123,-0.14523 -0.83767,-0.07192 -1.29312,0.199004 -0.91953,0.546976 -1.81987,0.544611 -2.74763,-0.0074 -0.5826,-0.346524 -0.9791,-0.373362 -1.92911,-0.130573 -0.65766,0.168081 -1.32696,0.429759 -1.48731,0.581513 -0.16033,0.151753 -0.77737,0.47139 -1.3712,0.710315 -0.5938,0.238926 -1.573,0.814027 -2.17597,1.278002 -0.60298,0.463975 -1.4785,1.018193 -1.94561,1.231581 -0.46711,0.2134 -1.08559,0.730555 -1.37439,1.149248 -0.48938,0.709486 -0.49523,0.786149 -0.086,1.127362 0.32572,0.271594 0.39669,0.607633 0.27496,1.301732 l -0.16409,0.935638 1.15574,-0.14856 c 1.02225,-0.131402 1.26871,-0.03899 2.13393,0.800695 1.23351,1.197055 1.75689,1.500302 3.04718,1.765558 1.51584,0.31164 1.75221,0.641811 1.0405,1.453424 -0.72129,0.822555 -1.07163,2.827362 -0.65077,3.724138 0.23672,0.50444 0.44332,0.59661 0.98785,0.44076 0.37868,-0.10844 0.83382,-0.33458 1.01138,-0.50265 z m -17.25992,63.615762 c -0.33408,-0.40554 -0.87436,-0.73734 -1.20064,-0.73734 -0.37949,0 -0.72304,-0.28258 -0.95358,-0.78433 -0.19821,-0.4314 -0.73917,-0.99546 -1.20213,-1.25347 -0.58848,-0.32797 -0.94386,-0.81383 -1.18113,-1.61478 -0.38654,-1.30494 -1.97197,-3.29765 -2.79702,-3.51558 -1.63837,-0.43275 -3.45633,-1.50381 -4.57146,-2.6933 l -1.25637,-1.34017 -1.54038,0.1836 c -1.44109,0.17177 -1.67957,0.10485 -3.69918,-1.03816 -3.59504,-2.03457 -4.33032,-2.54082 -5.36673,-3.69491 -0.95211,-1.06022 -0.99474,-1.1898 -0.99474,-3.02335 0,-2.09349 -0.84645,-4.50154 -2.03321,-5.78422 -0.33482,-0.36187 -0.61078,-1.00093 -0.61323,-1.42012 -0.002,-0.4192 -0.48642,-1.54675 -1.07546,-2.50568 -0.86521,-1.4085 -1.08955,-2.04802 -1.16751,-3.32813 -0.11664,-1.91444 -0.20593,-2.10449 -0.98902,-2.10449 -0.79514,0 -1.1426,1.46913 -0.57934,2.44948 0.20728,0.36073 0.49994,1.25121 0.65037,1.9788 0.45216,2.18714 1.45459,4.93669 2.07387,5.68844 0.48503,0.58875 0.53872,0.83727 0.32157,1.48857 -0.14336,0.42999 -0.33091,0.78181 -0.41678,0.78181 -0.0859,0 -0.68259,-0.60035 -1.32604,-1.33414 -0.95613,-1.09036 -1.14035,-1.46839 -1.00818,-2.0689 0.12969,-0.58925 -0.0443,-0.97935 -0.87868,-1.96953 -1.172,-1.39093 -1.16034,-1.35277 -0.64936,-2.12281 0.33128,-0.49926 0.31852,-0.66971 -0.11043,-1.47465 -0.26677,-0.50058 -0.5647,-1.64012 -0.66208,-2.53228 -0.3183,-2.91651 -0.60979,-3.74355 -1.68237,-4.77329 l -1.01856,-0.97788 -0.26861,-3.048 c -0.14772,-1.67639 -0.20069,-3.40174 -0.11769,-3.8341 0.29004,-1.51092 1.75091,-4.63879 3.23572,-6.92806 0.90639,-1.397465 1.71252,-3.046882 2.04357,-4.181342 l 0.54672,-1.87352 -0.56123,-1.25453 c -0.5446,-1.21737 -0.54696,-1.26644 -0.0795,-1.65669 0.71833,-0.59968 0.63067,-4.60782 -0.11818,-5.403415 -0.4478,-0.475759 -0.51024,-0.877109 -0.45932,-2.952005 0.0805,-3.282041 -0.21764,-3.708223 -2.75764,-3.94143 -3.54047,-0.32507 -4.29076,-0.261195 -7.362563,0.626808 -1.16979,0.338168 -1.70278,0.377979 -1.94836,0.145552 -0.40976,-0.387808 -0.83695,-0.117229 -1.07118,0.678576 -0.19701,0.669292 -1.48516,1.680961 -2.8647,2.249835 -0.761864,0.314177 -1.029027,0.314747 -1.466519,0.0037 -0.384629,-0.273922 -0.7269,-0.299484 -1.218068,-0.09099 -0.375718,0.159503 -1.730555,0.652148 -3.010749,1.094769 -1.280196,0.442609 -2.491142,0.952658 -2.690993,1.133428 -0.199853,0.18077 -0.989767,0.328673 -1.755366,0.328673 h -1.391996 l 0.979488,-0.494254 c 0.538718,-0.271841 1.181045,-0.504107 1.427392,-0.516127 0.422922,-0.02067 3.967645,-1.884681 5.371163,-2.82449 0.695589,-0.465758 0.616041,-0.523518 -0.775876,-0.563254 -0.82203,-0.02352 -0.900715,-0.100394 -0.856496,-0.836903 0.02678,-0.446088 -0.04806,-0.811056 -0.166301,-0.811056 -0.478275,0 -0.48658,-0.949997 -0.01601,-1.832392 0.317443,-0.595279 1.188663,-1.360706 2.385835,-2.096126 1.63394,-1.003734 2.128333,-1.165378 3.701782,-1.210326 1.926154,-0.05509 2.451324,-0.249163 2.451324,-0.906126 0,-0.292452 -0.25388,-0.370291 -0.90519,-0.277523 -0.49785,0.07093 -1.312514,0.186934 -1.810369,0.25784 -0.811272,0.115496 -0.905186,0.05657 -0.905186,-0.568799 0,-1.045092 0.481484,-1.417624 2.834235,-2.192892 1.96696,-0.648149 2.16171,-0.665839 2.38233,-0.216273 0.27319,0.556694 0.87494,0.646379 1.13367,0.16896 0.0956,-0.17635 0.0442,-0.468332 -0.11406,-0.648842 -0.1583,-0.180522 -0.28781,-0.694508 -0.28781,-1.142192 0,-0.708694 0.14217,-0.857093 1.099163,-1.147379 0.60452,-0.183369 2.14658,-0.705909 3.42677,-1.161194 1.2802,-0.455285 3.25868,-0.98748 4.39663,-1.182659 1.13795,-0.195166 2.4741,-0.445469 2.96922,-0.556211 0.49512,-0.110791 1.60075,-0.03516 2.45695,0.167921 0.85618,0.203113 2.72052,0.522143 4.14297,0.708966 1.42242,0.186823 3.40091,0.540391 4.39662,0.785692 2.40264,0.591923 4.89211,0.523381 7.68608,-0.211631 0.60895,-0.160183 1.55126,-0.294495 2.09402,-0.298456 0.54277,-0.0037 1.19974,-0.137146 1.45995,-0.295956 0.34267,-0.209142 0.55934,-0.170198 0.78602,0.141269 0.22668,0.311479 0.44334,0.350423 0.78603,0.141281 0.6469,-0.394814 1.03725,-0.362307 0.95969,0.07997 -0.0413,0.235113 0.3101,0.400013 0.96984,0.455223 0.56898,0.04766 1.38365,0.268387 1.81038,0.490627 0.42673,0.222239 1.33217,0.497571 2.01208,0.611841 1.02868,0.172897 1.21166,0.295968 1.09001,0.733093 -0.1315,0.472479 0.0954,0.537692 2.25523,0.648335 1.89032,0.0968 2.46848,0.0312 2.71644,-0.308644 0.52596,-0.720776 0.12131,-0.931355 -1.43358,-0.746017 -1.18335,0.141045 -1.55256,0.08034 -1.83,-0.300883 -0.19116,-0.262681 -0.55922,-0.477591 -0.81789,-0.477591 -0.63643,0 -0.92285,-0.604031 -0.47569,-1.003264 0.19954,-0.178158 0.35664,-0.722088 0.34912,-1.208717 -0.0159,-1.031698 -0.16825,-1.047109 -2.67511,-0.270603 -1.58586,0.491221 -1.66843,0.490367 -1.99607,-0.02067 -0.18797,-0.29317 -0.28585,-0.636228 -0.21748,-0.762357 0.33326,-0.614911 4.55431,-2.857715 5.69831,-3.027715 1.54919,-0.230211 3.44216,0.36097 4.54532,1.41953 0.72849,0.699039 1.46216,0.913702 2.6737,0.782312 0.28318,-0.0307 0.65032,0.155393 0.81586,0.413543 0.26967,0.420611 0.35563,0.402452 0.82713,-0.174667 0.47298,-0.578951 2.58657,-1.301806 2.86971,-0.981452 0.0625,0.07081 -0.1418,0.332746 -0.45407,0.582182 -0.31228,0.249435 -0.75447,0.865226 -0.98266,1.368417 -0.39954,0.881108 -0.39231,0.935749 0.19545,1.478553 0.3764,0.347601 0.49558,0.617734 0.31095,0.704795 -0.16464,0.07762 -0.57198,0.411104 -0.90518,0.741028 -0.61408,0.608066 -0.90565,0.614998 -3.25673,0.07749 -1.08394,-0.247814 -1.09419,0.225297 -0.0236,1.094546 1.5262,1.239317 5.14698,1.010196 5.52546,-0.349643 0.088,-0.316183 0.48547,-0.766814 0.88327,-1.001395 0.60227,-0.355176 0.80128,-0.361477 1.18965,-0.03763 0.43607,0.363619 0.40888,0.448502 -0.41832,1.305904 -0.96915,1.004526 -0.78368,1.164128 0.5914,0.508936 1.23356,-0.587765 1.67843,-1.242103 1.3064,-1.921459 -0.40589,-0.741177 0.21985,-1.68184 1.51056,-2.27078 0.55848,-0.254833 1.25587,-0.848391 1.54971,-1.319026 0.70617,-1.130915 1.77755,-1.731591 3.0885,-1.731591 1.40632,0 1.2512,0.606977 -0.28586,1.1184 -2.2751,0.75701 -2.42996,0.929535 -2.51606,2.802815 -0.0607,1.321179 0.009,1.720994 0.32328,1.833519 1.35105,0.484883 1.28398,0.404791 0.82407,0.984324 -0.523,0.659054 -0.54608,1.224103 -0.0499,1.224103 0.83527,0 3.50623,-2.124288 3.50623,-2.788603 0,-0.179483 -0.34914,-0.476614 -0.77587,-0.660293 -1.45791,-0.62755 -0.78164,-2.253078 1.39393,-3.350533 0.83016,-0.418779 1.69999,-0.543893 3.72399,-0.535699 2.42713,0.0099 2.64083,0.05645 2.64083,0.576129 0,0.310996 0.1164,0.565445 0.25864,0.565445 0.14224,0 0.25861,-0.265442 0.25861,-0.589869 0,-0.497831 0.1715,-0.589374 1.09916,-0.586725 0.90992,0.0025 1.24743,0.177168 1.96033,1.013972 0.48865,0.573565 1.01903,0.941752 1.22606,0.851151 0.2007,-0.08777 1.01862,0.33516 1.81761,0.939957 1.4301,1.082501 1.45024,1.117435 1.29249,2.242482 -0.0971,0.692788 -0.0574,1.142861 0.10072,1.142861 0.14352,0 0.72853,0.481726 1.30002,1.070518 0.7981,0.822259 0.97333,1.160848 0.75559,1.460034 -0.31255,0.42945 -2.95491,2.188349 -3.28752,2.188349 -0.115,0 -0.32042,-0.431344 -0.45652,-0.958526 -0.17167,-0.664984 -0.40477,-0.958526 -0.76116,-0.958526 -0.80884,0 -0.80298,1.018564 0.0105,1.757921 0.82553,0.750646 0.76575,1.59791 -0.19955,2.828067 -1.34535,1.71452 -1.50826,2.704415 -0.85141,5.173604 0.21182,0.796288 0.3864,1.951837 0.38794,2.567875 0.002,0.829835 0.18013,1.307488 0.68713,1.843323 0.37638,0.397785 0.77196,0.72324 0.87907,0.72324 0.10715,0 0.44587,0.549389 0.75277,1.220872 0.50346,1.101503 0.5286,1.368232 0.25715,2.728123 -0.16547,0.82898 -0.40483,1.73769 -0.53191,2.01938 -0.32951,0.73039 -0.30422,0.79792 0.41553,1.10999 0.59144,0.25642 0.64656,0.43262 0.64656,2.06647 0,1.95919 -0.33669,2.40607 -1.37523,1.82527 -0.31046,-0.17361 -1.57408,-0.40141 -2.80805,-0.50621 -2.47628,-0.21032 -2.98245,-0.62897 -1.81415,-1.50044 0.93444,-0.69702 3.41119,-3.38163 3.41119,-3.69746 0,-0.47279 -1.00496,-0.25348 -2.22316,0.48518 -1.10498,0.66999 -1.50311,0.73732 -4.36006,0.73732 -2.94755,0 -3.19884,0.046 -4.02043,0.73733 -0.48201,0.40553 -1.01407,0.73733 -1.18238,0.73733 -0.16833,0 -0.46576,0.2221 -0.66098,0.49354 -0.31911,0.4437 -0.28966,0.47232 0.2916,0.28336 3.5719,-1.1612 4.32509,-0.9622 3.24271,0.85667 -0.36806,0.61853 -0.62809,1.26713 -0.57781,1.44137 0.0503,0.17422 0.75799,0.38532 1.57271,0.4691 1.2002,0.12341 1.55961,0.0537 1.89393,-0.36762 0.48036,-0.60532 1.10998,-0.22125 1.10998,0.67708 0,0.744057 -0.77818,1.296217 -3.55773,2.524382 -1.31666,0.58179 -2.45826,1.17648 -2.53688,1.32153 -0.22429,0.41387 -1.05075,0.30883 -1.40553,-0.17867 -0.42127,-0.57885 -0.74161,-0.55907 -2.39907,0.1481 -1.67975,0.71671 -2.51481,1.55089 -2.51481,2.51215 0,0.53978 -0.17818,0.77118 -0.71121,0.9236 -1.4941,0.42724 -3.33927,1.61628 -4.38563,2.82618 -1.91437,2.2135 -2.61324,3.31686 -2.79297,4.40937 -0.20293,1.23357 -0.71406,1.80464 -2.8497,3.18387 -2.21547,1.43078 -4.26964,3.50837 -4.79876,4.85346 -0.3672,0.93346 -0.42887,1.65562 -0.31482,3.68664 0.15102,2.68927 -0.33604,4.9217 -1.01851,4.66836 -0.60531,-0.2247 -1.5985,-2.69092 -1.65572,-4.11142 -0.0552,-1.36961 -0.44693,-2.60258 -0.82692,-2.60258 -0.10879,0 -0.33148,0.15245 -0.49487,0.33877 -0.22369,0.25508 -0.45785,0.21865 -0.94782,-0.14745 -0.41919,-0.31323 -1.19493,-0.48625 -2.18005,-0.48625 -1.2939,0 -1.58811,0.10101 -1.91133,0.65613 -0.37441,0.64308 -0.4253,0.6489 -2.55314,0.29212 l -2.17111,-0.36401 -1.59438,0.91897 c -1.99674,1.15091 -2.76535,2.08001 -3.27015,3.95302 -0.2186,0.81107 -0.57588,2.00552 -0.79395,2.65438 -0.49838,1.48285 -0.50866,3.774 -0.0239,5.30877 0.20497,0.64884 0.37445,1.40856 0.37659,1.68827 0.006,0.8205 1.41852,1.49325 2.40766,1.14695 0.45597,-0.15964 1.32104,-0.43596 1.92234,-0.61406 0.88954,-0.26345 1.21785,-0.56615 1.76147,-1.62397 0.60571,-1.17866 0.80109,-1.33164 2.09063,-1.63693 0.78237,-0.18521 1.58995,-0.26347 1.79464,-0.17389 0.47368,0.20728 0.47807,1.1913 0.009,2.03506 -0.19969,0.35927 -0.44266,1.2172 -0.53995,1.90651 -0.0973,0.68931 -0.32546,1.35291 -0.50707,1.47467 -0.35968,0.24113 -1.17614,1.92013 -1.17614,2.4187 0,0.39903 1.43541,0.40132 2.08755,0.004 0.66732,-0.40729 2.36671,0.17169 3.09354,1.05398 0.51096,0.62026 0.527,0.79354 0.26204,2.83205 -0.15523,1.19425 -0.34193,2.50317 -0.41488,2.90869 -0.15909,0.88429 0.60478,2.40516 1.57039,3.12666 0.63077,0.47132 0.73371,0.47236 1.57287,0.0161 0.49385,-0.26858 1.04869,-0.4883 1.23297,-0.4883 0.52768,0 0.35065,1.29382 -0.22328,1.63176 -0.28449,0.16753 -0.53292,0.49932 -0.55208,0.73734 -0.0192,0.238 -0.0482,0.59865 -0.0647,0.80142 -0.0512,0.63393 -1.20458,0.40289 -1.84021,-0.36867 z m 53.15892,-75.385708 c -0.50312,-0.307505 -1.1395,-0.559107 -1.41418,-0.559107 -1.14706,0 -2.32898,-3.056571 -2.4214,-6.262035 -0.0478,-1.660932 0.037,-2.064237 0.63665,-3.027641 0.55841,-0.897002 0.63604,-1.213482 0.40235,-1.640197 -0.21535,-0.393266 -0.2104,-0.726817 0.0193,-1.301806 0.16988,-0.425179 0.30886,-1.240803 0.30886,-1.812499 0,-0.571697 0.17458,-1.238526 0.38795,-1.481846 0.21337,-0.243321 0.38793,-0.82159 0.38793,-1.285058 0,-1.498668 -0.47277,-1.724138 -3.66274,-1.746817 -3.04697,-0.02166 -4.39491,-0.451633 -4.98337,-1.589641 -0.22112,-0.427593 -0.16043,-0.643272 0.30318,-1.077438 0.43909,-0.411204 1.23668,-0.593892 3.28955,-0.753457 2.81197,-0.218574 4.02959,-0.710811 3.24301,-1.311016 -0.54735,-0.417665 -1.60878,-0.374921 -2.90049,0.116857 -0.60951,0.232031 -1.57373,0.513937 -2.14271,0.626461 -0.56897,0.112525 -1.43038,0.542012 -1.91423,0.954429 -0.48386,0.412417 -1.51604,0.918517 -2.29374,1.124676 -0.77771,0.206159 -1.66201,0.632836 -1.96514,0.948152 -0.67703,0.704275 -2.18167,0.98352 -2.87876,0.534263 -0.28449,-0.183344 -1.62287,-0.399716 -2.97419,-0.48081 -2.39768,-0.143918 -2.43823,-0.15824 -1.68107,-0.593843 1.02986,-0.592493 0.98089,-1.010926 -0.12931,-1.104931 -2.30208,-0.194919 -2.62318,-0.345955 -2.53737,-1.193553 0.0697,-0.688318 0.30476,-0.883312 1.76149,-1.461148 0.97185,-0.385505 2.03341,-0.611495 2.51622,-0.535674 0.45933,0.07217 1.15761,-0.04432 1.55174,-0.258794 1.78005,-0.968648 18.71231,-1.675167 20.64128,-0.861283 0.8303,0.350319 6.40069,0.121338 11.23966,-0.462022 3.30711,-0.398688 12.32535,-0.390888 13.97306,0.01213 0.72922,0.178344 1.6369,0.509326 2.01707,0.73551 0.40462,0.24074 1.46859,0.412001 2.56623,0.413066 1.84357,0.0012 2.4376,0.350868 1.29313,0.759893 -1.48572,0.530995 -3.26363,1.646003 -3.62361,2.272538 -0.21983,0.382584 -0.34024,1.028826 -0.26989,1.448472 0.0932,0.556384 -0.0287,0.882062 -0.45903,1.225787 -0.51304,0.409805 -0.53216,0.49168 -0.15341,0.657409 0.23793,0.104107 0.43259,0.289345 0.43259,0.411624 0,0.122304 -0.78557,0.796783 -1.74573,1.498929 -2.02057,1.477612 -2.03049,1.490597 -2.23025,2.91524 -0.2822,2.012493 -2.57558,3.359755 -7.05352,4.143652 -2.51241,0.439811 -3.50011,0.746511 -4.26643,1.324843 -1.13972,0.860101 -3.23738,1.776242 -4.73774,2.069177 -0.70729,0.138087 -1.30087,0.534881 -1.91616,1.280948 -0.49029,0.594486 -1.2098,1.350158 -1.59891,1.679265 -0.3891,0.329094 -1.23753,1.340428 -1.8854,2.247384 -0.64786,0.906967 -1.41187,1.71879 -1.69783,1.804069 -0.28593,0.08529 -0.93153,-0.09656 -1.43465,-0.404073 z m -37.3745,-14.853204 -0.61571,-0.747403 h 0.61032 c 0.33568,0 0.85059,-0.247963 1.14425,-0.551024 0.45925,-0.473965 2.99085,-1.140447 2.99085,-0.787375 0,0.440096 -1.14855,2.221463 -1.50588,2.33556 -1.65511,0.528518 -2.01056,0.494687 -2.62383,-0.249758 z m 10.13296,-3.917909 c 0.0662,-0.721135 -0.0117,-0.812257 -0.6997,-0.821801 -0.50451,-0.0074 -0.8024,-0.177984 -0.85525,-0.490924 -0.12075,-0.715044 0.75385,-0.891494 1.97781,-0.399035 1.17687,0.473519 1.11646,0.458306 1.81974,0.458306 0.28091,0 0.54863,0.2684 0.6325,0.634098 0.14153,0.617227 0.22359,0.628776 3.08303,0.43382 2.99501,-0.20419 3.51514,-0.100269 3.00498,0.600787 -0.2202,0.302579 -1.31854,0.395804 -4.66281,0.395804 h -4.37475 z m -5.486,-3.029374 c 0,-0.34463 0.26434,-0.733539 0.62651,-0.921711 1.30513,-0.678143 4.30278,0.471303 3.23624,1.240927 -0.20422,0.147371 -1.15689,0.269972 -2.11703,0.27246 -1.58078,0.0037 -1.74572,-0.05187 -1.74572,-0.591676 z m -3.17146,33.570433 c 0.43996,-0.41639 0.89557,-2.45352 0.79601,-3.559058 -0.0755,-0.837435 0.005,-0.936999 1.08233,-1.33903 0.6401,-0.238888 1.62934,-0.788328 2.19831,-1.220996 0.97761,-0.743417 1.0345,-0.867974 1.0345,-2.265222 0,-1.210363 0.14073,-1.67107 0.77587,-2.539886 0.42674,-0.583729 1.17559,-1.681196 1.66411,-2.438812 0.79123,-1.22705 0.97129,-1.358527 1.64873,-1.204025 0.41829,0.09544 1.26019,0.173454 1.8709,0.173454 0.93791,0 1.27265,0.177798 2.15511,1.144692 0.99308,1.088109 1.02967,1.190198 0.74007,2.065166 -0.26861,0.811539 -0.23951,0.994772 0.24597,1.548395 0.41357,0.471625 0.72444,0.578183 1.2489,0.428076 0.86864,-0.248618 3.5334,-3.079261 3.43206,-3.645721 -0.0787,-0.439836 -2.81288,-1.835537 -3.59584,-1.835537 -0.25256,0 -0.61104,-0.353047 -0.79659,-0.78454 -0.18558,-0.431492 -0.62835,-1.025211 -0.98397,-1.319384 -0.54659,-0.452153 -0.82286,-0.488597 -1.78689,-0.235683 -0.81078,0.212708 -1.22185,0.204711 -1.42245,-0.02773 -0.50878,-0.589424 0.57228,-1.154572 2.11974,-1.108138 1.11697,0.03355 1.51461,-0.07972 1.84875,-0.526675 0.23414,-0.313137 0.88649,-0.834786 1.44969,-1.159213 0.66123,-0.3809 1.05326,-0.824945 1.10662,-1.253454 0.0724,-0.581847 -0.0311,-0.663598 -0.84054,-0.663598 -0.79192,0 -0.92317,-0.0968 -0.92317,-0.680953 0,-0.374537 -0.16748,-0.938596 -0.37219,-1.253467 -0.32523,-0.500282 -0.44308,-0.523072 -0.93415,-0.180695 -0.3815,0.265962 -0.95759,0.329738 -1.79391,0.198571 -1.20102,-0.188371 -1.23891,-0.170446 -1.50934,0.71419 -0.15257,0.499082 -0.3857,0.907426 -0.51809,0.907426 -0.13238,0 -0.38324,0.392425 -0.55745,0.872047 -0.23101,0.636042 -0.64197,1.00897 -1.51847,1.377973 -0.66094,0.278267 -1.34661,0.631487 -1.52371,0.784961 -0.2131,0.184682 -0.54105,0.115372 -0.96984,-0.205044 -1.04411,-0.780171 -0.7452,0.0099 0.51595,1.362698 0.6401,0.68692 1.16381,1.408401 1.16381,1.603308 0,0.463653 -0.75602,0.645797 -1.47715,0.355857 -0.36123,-0.14523 -0.83767,-0.07192 -1.29312,0.199004 -0.91953,0.546976 -1.81987,0.544611 -2.74763,-0.0074 -0.5826,-0.346524 -0.9791,-0.373362 -1.92911,-0.130573 -0.65766,0.168081 -1.32696,0.429759 -1.48731,0.581513 -0.16033,0.151753 -0.77737,0.47139 -1.3712,0.710315 -0.5938,0.238926 -1.573,0.814027 -2.17597,1.278002 -0.60298,0.463975 -1.4785,1.018193 -1.94561,1.231581 -0.46711,0.2134 -1.08559,0.730555 -1.37439,1.149248 -0.48938,0.709486 -0.49523,0.786149 -0.086,1.127362 0.32572,0.271594 0.39669,0.607633 0.27496,1.301732 l -0.16409,0.935638 1.15574,-0.14856 c 1.02225,-0.131402 1.26871,-0.03899 2.13393,0.800695 1.23351,1.197055 1.75689,1.500302 3.04718,1.765558 1.51584,0.31164 1.75221,0.641811 1.0405,1.453424 -0.72129,0.822555 -1.07163,2.827362 -0.65077,3.724138 0.23672,0.50444 0.44332,0.59661 0.98785,0.44076 0.37868,-0.10844 0.83382,-0.33458 1.01138,-0.50265 z M 148.82161,60.372866 c -0.81089,-0.327559 -1.78961,-0.515756 -2.27648,-0.437756 -0.60045,0.09618 -0.89792,0.0062 -1.00179,-0.302269 -0.0813,-0.241488 -0.0937,-0.500728 -0.0276,-0.576079 0.20546,-0.234308 3.88403,-1.248441 5.28155,-1.456048 1.29982,-0.193099 1.34469,-0.174184 2.03504,0.857985 0.79209,1.184243 1.63875,1.374062 2.12975,0.47748 0.25961,-0.474064 0.2446,-0.623861 -0.0834,-0.833214 -0.34054,-0.217337 -0.34619,-0.306144 -0.038,-0.597816 0.50753,-0.480352 2.45992,-1.235257 3.19469,-1.235257 1.00192,0 0.73777,0.876825 -0.42046,1.395663 -1.10488,0.494935 -1.31651,1.047964 -0.58191,1.520629 0.85729,0.551618 -0.0791,0.970831 -3.07893,1.37842 -3.62938,0.493139 -3.41727,0.501062 -5.13241,-0.191738 z m 15.12957,-0.116362 c -0.20858,-0.370167 -0.4286,-0.402365 -1.13712,-0.166422 -1.54084,0.513119 -4.20546,-0.850322 -3.13554,-1.604397 0.13931,-0.09816 0.48893,-0.03466 0.77697,0.141095 0.37631,0.229679 0.81801,0.229221 1.56979,-0.0012 1.26795,-0.389343 1.9518,-0.183654 2.14162,0.64415 0.11907,0.519247 0.2742,0.59029 0.95155,0.435801 0.67584,-0.154143 0.79523,-0.100022 0.72407,0.328388 -0.11347,0.683355 -1.53734,0.85125 -1.89134,0.223019 z m -10.345,78.889126 c -0.0879,-0.16221 -0.6767,-0.29494 -1.30838,-0.29494 -0.63171,0 -1.14856,-0.13271 -1.14856,-0.29493 0,-0.16221 0.35658,-0.29494 0.79242,-0.29494 0.73825,0 0.78687,-0.0655 0.71122,-0.95852 l -0.0812,-0.95852 1.42244,0.0974 c 1.40482,0.0963 3.36212,1.15798 3.36212,1.82377 0,0.1599 -0.43644,0.29156 -0.96984,0.29255 -0.53342,8.5e-4 -1.3032,0.20009 -1.71063,0.44242 -0.87879,0.52266 -0.86619,0.52094 -1.06959,0.14565 z m -6.36764,-3.97997 c -0.44205,-0.74054 -0.97925,-1.1669 -1.90837,-1.51463 -0.71122,-0.26616 -1.61317,-0.66845 -2.00434,-0.89396 -0.6148,-0.35443 -0.81466,-0.34901 -1.47425,0.04 -1.01796,0.6003 -1.74689,0.61344 -1.31774,0.0238 0.92282,-1.26802 4.24428,-1.62613 5.53323,-0.59657 0.29811,0.23812 0.68969,0.43294 0.87015,0.43294 0.1805,0 0.84368,0.44875 1.47377,0.99722 0.63009,0.54846 1.50395,1.17811 1.94193,1.39919 1.34224,0.67753 0.99562,1.14277 -0.85141,1.14277 -1.59284,0 -1.66822,-0.0344 -2.26297,-1.03067 z m 4.3445,-33.74325 c 0.53441,-0.84784 0.89443,-1.13966 1.36442,-1.10599 0.42687,0.0306 0.67031,-0.12999 0.7346,-0.484555 0.16825,-0.92806 -0.34865,-1.23929 -2.05826,-1.23929 -1.55906,0 -1.63524,0.0331 -1.57374,0.68304 0.0356,0.37568 -0.0636,0.956325 -0.22038,1.290325 -0.21291,0.45368 -0.20185,0.78445 0.0437,1.30775 0.46204,0.98452 0.87298,0.87606 1.70963,-0.45128 z m 0.0187,2.86693 c 1.46887,-0.6534 1.75672,-1.12533 0.68635,-1.12533 -1.08177,0 -3.46658,0.89361 -3.46658,1.29897 0,0.91436 0.38888,0.89007 2.78023,-0.17364 z m -6.08499,-0.16681 c 0.21788,-0.28387 0.62653,-1.12028 0.90809,-1.85868 0.29739,-0.7799 0.96106,-1.74822 1.58361,-2.310495 0.58943,-0.53237 1.07169,-1.08952 1.07169,-1.2381 0,-0.36012 -0.78289,-0.34212 -1.70713,0.0392 -1.07021,0.44161 -3.17398,3.878135 -3.19591,5.220565 -0.0133,0.81597 0.76111,0.90121 1.33965,0.14747 z m 10.76914,-2.02491 c 0.85027,-0.67915 0.38192,-0.96389 -1.18898,-0.72286 -1.46814,0.22526 -1.76433,0.39981 -1.50147,0.88483 0.26034,0.48035 2.01884,0.37449 2.69045,-0.16197 z m -7.13737,-4.432362 c 1.29326,-0.24375 1.5352,-1.16719 0.60553,-2.31114 -0.77387,-0.95224 -1.41974,-0.91993 -3.97074,0.19859 -1.92734,0.84507 -2.3769,1.25905 -1.92589,1.77339 0.24341,0.27757 0.5768,0.27483 1.51867,-0.0125 1.03551,-0.31582 1.26344,-0.3035 1.60566,0.0868 0.43935,0.50102 0.72711,0.53619 2.16677,0.26485 z"
       sodipodi:nodetypes="sssssssssssscscssscccsssssssssssssscsssssssssssssssssssssssssssssssssssssssssssscssssssssssssssscssssscssssssssssssssscsssscsssssssssssssscscsssssscssssssssssssssssscssssssssssssssssscsssssssssssssssssssscsscsssssssssscssssssssssssscsssssssssssssssssscsssssssssssssssssssssscssssssssssssssssssssssssssssscssssssssssssssssssscssssssscssscsssssssssssssscsssssccsssssssccssssssscsssssssssssssssssssssssssssssssssssssssssssscsssssssssssssssscsssssscssscsssccssssscsscsssssssssssssscscssscccssssssssssssssssssssssss" />
  </g>
</svg>
